<?xml version="1.0" encoding="UTF-8"?>
<svg version="1.1" xmlns="http://www.w3.org/2000/svg" width="582" height="140">
<path d="M0 0 C4.11299893 0.56452926 5.70309761 2.31238103 8.1875 5.4375 C10.48949308 8.93300714 12.55775524 12.5494289 14.625 16.1875 C15.23408203 17.24517578 15.84316406 18.30285156 16.47070312 19.39257812 C21.36047292 27.91072797 26.15243114 36.48399364 30.92871094 45.06616211 C34.98897692 52.34751947 39.15419881 59.56069782 43.375 66.75 C45.65048934 70.64313277 47.92038273 74.53948682 50.1875 78.4375 C50.74759766 79.3975293 51.30769531 80.35755859 51.88476562 81.34667969 C53.48091994 84.09727933 55.05597773 86.85885483 56.625 89.625 C57.10412842 90.44460205 57.58325684 91.2642041 58.0769043 92.10864258 C61.22270657 97.7219502 61.22270657 97.7219502 61.04296875 101.375 C60.01697154 103.8486371 59.47129105 104.991099 57.1875 106.4375 C50.58695371 107.1592384 45.54702285 104.94539536 39.50390625 102.46484375 C37.42133732 101.6396878 35.33865141 100.81482703 33.25585938 99.99023438 C29.99712803 98.68364554 26.74086636 97.37129802 23.48706055 96.05249023 C20.33190078 94.77874497 17.16862694 93.52710636 14.00390625 92.27734375 C13.03908829 91.87845444 12.07427032 91.47956512 11.08021545 91.06858826 C1.00313202 87.11090103 -5.19913785 89.26869256 -14.9375 93.25390625 C-16.88012947 94.02558918 -18.82284029 94.79706736 -20.765625 95.56835938 C-23.7954547 96.78417439 -26.82341313 98.00441701 -29.84960938 99.22924805 C-32.79105836 100.41580108 -35.73878503 101.58555074 -38.6875 102.75390625 C-39.58355957 103.12262344 -40.47961914 103.49134064 -41.40283203 103.87123108 C-46.80395846 106.00216413 -50.99795653 106.98281647 -56.8125 106.4375 C-58.875 104.875 -58.875 104.875 -59.8125 102.4375 C-59.42876937 97.42443713 -58.31416109 93.92888254 -55.77734375 89.61328125 C-55.14119141 88.51693359 -54.50503906 87.42058594 -53.84960938 86.29101562 C-53.14983017 85.11062337 -52.44995778 83.93028636 -51.75 82.75 C-51.02418283 81.5065636 -50.29959555 80.26240857 -49.57617188 79.01757812 C-48.07358937 76.43420586 -46.56578338 73.85399365 -45.05419922 71.27587891 C-41.59050427 65.35821319 -38.20608411 59.3955659 -34.8125 53.4375 C-33.82385751 51.70838421 -32.83521374 49.9792691 -31.84614563 48.25039673 C-29.07459018 43.40530909 -26.31018767 38.5562707 -23.55657959 33.70095825 C-22.1154163 31.16043729 -20.67181054 28.62130815 -19.22802734 26.08227539 C-18.54647274 24.88211881 -17.86608939 23.68129616 -17.18701172 22.47973633 C-4.91289478 0.76422808 -4.91289478 0.76422808 0 0 Z " fill="#FF7D17" transform="translate(60.8125,-0.4375)"/>
<path d="M0 0 C5.61 0 11.22 0 17 0 C17.33 1.65 17.66 3.3 18 5 C19.3921875 4.0409375 19.3921875 4.0409375 20.8125 3.0625 C26.65375391 -0.71713488 32.21326292 -0.70264635 39 0 C45.99570719 2.00016733 50.06839476 5.48614149 53.84375 11.62109375 C58.05231272 20.27992718 58.54335828 30.57123133 56 39.875 C53.42961221 46.2466655 48.51250503 52.30278687 42.125 55.0625 C34.61591606 57.23113524 27.84903122 56.63417983 21 53 C20.01 52.34 19.02 51.68 18 51 C17.67 60.9 17.34 70.8 17 81 C11.39 81 5.78 81 0 81 C0 54.27 0 27.54 0 0 Z M19 19 C16.25599073 23.4413346 16.35240025 27.93113286 17 33 C18.71389977 36.55475507 19.9750765 38.36288539 23.3125 40.4375 C28.01840291 41.42245642 31.59036892 40.75180324 35.8125 38.5 C38.90169563 34.96949071 39.69451029 31.63717714 40 27 C39.3809957 23.22407377 38.52897561 20.80404293 36.4375 17.625 C30.35792525 13.57195017 24.40174986 14.12525013 19 19 Z " fill="#212121" transform="translate(219,41)"/>
<path d="M0 0 C5.61 0 11.22 0 17 0 C17 23.76 17 47.52 17 72 C11.39 72 5.78 72 0 72 C-0.33 70.35 -0.66 68.7 -1 67 C-1.721875 67.61875 -2.44375 68.2375 -3.1875 68.875 C-9.09122866 73.33559499 -14.78579929 73.91869848 -22 73 C-29.46888624 70.69941183 -34.10436107 66.69776517 -38 60 C-42.36300526 51.27398948 -41.92090319 41.33530679 -38.91015625 32.2890625 C-36.3286344 25.79647964 -32.00802551 20.94266543 -25.703125 17.88671875 C-19.9509 15.99978945 -13.03852697 15.72592685 -7.41015625 18.0859375 C-5.07557429 19.54663435 -2.9488589 21.0511411 -1 23 C-0.67 15.41 -0.34 7.82 0 0 Z M-21 36 C-23.44415483 39.99952608 -23.61209741 44.42781783 -23 49 C-21.80873468 51.8201875 -21.80873468 51.8201875 -20 54 C-19.4121875 54.86625 -19.4121875 54.86625 -18.8125 55.75 C-15.7897508 57.83465462 -12.57863069 58.210109 -9 58 C-4.93116862 56.15751032 -3.347898 54.58357084 -1.0625 50.75 C0.16593933 46.41433178 0.44774689 43.28255668 -1 39 C-2.83484835 36.04634168 -4.83570547 33.58214727 -8 32 C-13.66612382 31.4551804 -16.66638828 32.27107829 -21 36 Z " fill="#212121" transform="translate(564,24)"/>
<path d="M0 0 C3.3125 2.0625 3.3125 2.0625 4.3125 3.0625 C4.6425 1.4125 4.9725 -0.2375 5.3125 -1.9375 C8.12506281 -1.96434312 10.93737241 -1.98426188 13.75 -2 C14.95366211 -2.01256836 14.95366211 -2.01256836 16.18164062 -2.02539062 C18.22545221 -2.0340143 20.26933902 -1.9897815 22.3125 -1.9375 C23.3125 -0.9375 23.3125 -0.9375 23.43275452 1.23280334 C23.43053391 2.18988693 23.42831329 3.14697052 23.42602539 4.13305664 C23.42594986 5.21410172 23.42587433 6.29514679 23.42579651 7.40895081 C23.42063522 8.5849736 23.41547394 9.7609964 23.41015625 10.97265625 C23.4087413 12.16982773 23.40732635 13.36699921 23.40586853 14.60044861 C23.40024979 18.44199066 23.38769411 22.28347543 23.375 26.125 C23.36998741 28.72200437 23.36542409 31.31900965 23.36132812 33.91601562 C23.35027427 40.29819932 23.33299708 46.68033993 23.3125 53.0625 C17.3725 53.0625 11.4325 53.0625 5.3125 53.0625 C4.8175 51.0825 4.8175 51.0825 4.3125 49.0625 C3.384375 49.701875 2.45625 50.34125 1.5 51 C-4.10365031 54.62589138 -9.17748856 54.67254123 -15.6875 54.0625 C-22.35553014 52.34104898 -27.09807243 48.93214144 -30.6875 43.0625 C-35.30509574 33.94238879 -36.03546384 24.78862508 -33.6875 14.875 C-31.31449312 7.93507423 -26.55767565 2.88395762 -20.4375 -1 C-13.49093477 -2.73664131 -6.55878785 -3.2322084 0 0 Z M-14.6875 17.0625 C-17.45107963 21.48046743 -17.33298957 26.01014953 -16.6875 31.0625 C-14.97360023 34.61725507 -13.7124235 36.42538539 -10.375 38.5 C-6.74849111 39.25903674 -4.27174608 39.02256591 -0.6875 38.0625 C3.79965994 34.26525373 3.79965994 34.26525373 5.55078125 28.890625 C5.71792574 23.08455321 5.37280848 19.57395387 1.3125 15.0625 C-4.33640336 10.91997087 -9.68462578 12.96923927 -14.6875 17.0625 Z " fill="#212121" transform="translate(354.6875,42.9375)"/>
<path d="M0 0 C5.61 0 11.22 0 17 0 C17.03738281 2.31257813 17.07476562 4.62515625 17.11328125 7.0078125 C17.15956915 9.26181179 17.21077613 11.51564978 17.26245117 13.76953125 C17.29558667 15.32900081 17.3236537 16.88858702 17.34643555 18.44824219 C17.38019281 20.69776852 17.43251504 22.94623687 17.48828125 25.1953125 C17.49467117 25.8861795 17.5010611 26.57704651 17.50764465 27.28884888 C17.64523029 31.87800009 18.58486742 35.09655354 21 39 C24.15796107 40.57898053 27.60670636 40.81928171 31 40 C34.56603967 37.21510243 35.87171033 35.73549259 36.65942383 31.21948242 C36.70021025 29.76529651 36.71476463 28.31020598 36.70703125 26.85546875 C36.72215256 26.08568192 36.73727386 25.31589508 36.75285339 24.52278137 C36.79565263 22.07738782 36.8045601 19.6332304 36.8125 17.1875 C36.83565061 15.52405586 36.86101713 13.86064098 36.88867188 12.19726562 C36.95144647 8.13140154 36.98384249 4.06630575 37 0 C39.81256281 -0.02684312 42.62487241 -0.04676188 45.4375 -0.0625 C46.64116211 -0.07506836 46.64116211 -0.07506836 47.86914062 -0.08789062 C49.91295221 -0.0965143 51.95683902 -0.0522815 54 0 C55 1 55 1 55.12025452 3.17030334 C55.11803391 4.12738693 55.11581329 5.08447052 55.11352539 6.07055664 C55.11344986 7.15160172 55.11337433 8.23264679 55.11329651 9.34645081 C55.10813522 10.5224736 55.10297394 11.6984964 55.09765625 12.91015625 C55.0962413 14.10732773 55.09482635 15.30449921 55.09336853 16.53794861 C55.08774979 20.37949066 55.07519411 24.22097543 55.0625 28.0625 C55.05748741 30.65950437 55.05292409 33.25650965 55.04882812 35.85351562 C55.03777427 42.23569932 55.02049708 48.61783993 55 55 C49.06 55 43.12 55 37 55 C36.505 53.02 36.505 53.02 36 51 C34.906875 51.639375 33.81375 52.27875 32.6875 52.9375 C26.86698852 56.34195011 21.47604845 56.82431832 14.87890625 55.609375 C9.0855872 53.84766394 5.1680325 50.103101 2 45 C0.09069717 39.53972249 -0.2700267 34.75861237 -0.1953125 29.00390625 C-0.1924826 28.17036118 -0.18965271 27.3368161 -0.18673706 26.47801208 C-0.17562289 23.8393564 -0.15053515 21.20105152 -0.125 18.5625 C-0.11495885 16.76367681 -0.10583499 14.96484825 -0.09765625 13.16601562 C-0.07742152 8.77710283 -0.0382571 4.3889399 0 0 Z " fill="#212121" transform="translate(154,41)"/>
<path d="M0 0 C6.14105577 5.18578043 9.83460498 11.07826426 11 19 C11.18407522 21.7233693 11.14408446 24.26239527 11 27 C10 28 10 28 6.48999023 28.11352539 C4.92951578 28.11336626 3.36903607 28.10767142 1.80859375 28.09765625 C0.98875504 28.0962413 0.16891632 28.09482635 -0.67576599 28.09336853 C-3.30471382 28.08775289 -5.93357773 28.07519779 -8.5625 28.0625 C-10.34049357 28.05748701 -12.11848846 28.05292376 -13.89648438 28.04882812 C-18.26435545 28.03777839 -22.63216348 28.02050331 -27 28 C-24.32402189 33.81200655 -24.32402189 33.81200655 -19 37 C-14.28269634 36.96923096 -14.28269634 36.96923096 -10.5534668 34.46362305 C-8.53543932 32.56230689 -7.50224695 32.64888836 -4.76953125 32.70703125 C-3.96708984 32.71669922 -3.16464844 32.72636719 -2.33789062 32.73632812 C-1.50451172 32.76146484 -0.67113281 32.78660156 0.1875 32.8125 C1.4549707 32.83280273 1.4549707 32.83280273 2.74804688 32.85351562 C4.83230384 32.88884201 6.91623277 32.94264861 9 33 C7.71974231 40.37080396 4.01044833 44.32411583 -1.8046875 48.703125 C-9.08682868 53.00503046 -17.79952594 53.30011851 -25.890625 51.27734375 C-34.20954936 48.20133429 -38.98377462 42.7698514 -43 35 C-45.78508944 26.78486198 -44.8252085 16.85927337 -41.1953125 9.1171875 C-37.66410946 2.86257297 -33.16527081 -1.28586146 -26.234375 -3.5859375 C-17.37182052 -5.22829899 -7.65605653 -5.12071755 0 0 Z M-25 13 C-25.66 14.65 -26.32 16.3 -27 18 C-20.4 18 -13.8 18 -7 18 C-8.87920333 12.76066994 -8.87920333 12.76066994 -13 10 C-17.93514873 9.46162014 -21.12948292 9.79300013 -25 13 Z " fill="#212121" transform="translate(509,45)"/>
<path d="M0 0 C4.57325457 2.68612123 7.45195095 6.05373895 9.375 11 C9.87 13.97 9.87 13.97 10.375 17 C4.765 17 -0.845 17 -6.625 17 C-7.285 15.68 -7.945 14.36 -8.625 13 C-10.91205831 11.85647084 -12.21764762 11.89665561 -14.75 11.9375 C-16.668125 11.9684375 -16.668125 11.9684375 -18.625 12 C-18.625 13.65 -18.625 15.3 -18.625 17 C-17.95855469 17.17015625 -17.29210937 17.3403125 -16.60546875 17.515625 C3.73562503 22.86405245 3.73562503 22.86405245 8.375 29 C10.59202762 33.01176427 10.84458445 36.46068364 10.375 41 C7.82964294 47.15127956 4.37091869 50.16599156 -1.625 53 C-9.75191163 55.66929943 -18.90582728 54.69068109 -26.5390625 51.12109375 C-32.91372474 47.69501123 -35.30245527 43.72110709 -37.625 37 C-37.625 36.34 -37.625 35.68 -37.625 35 C-31.685 35 -25.745 35 -19.625 35 C-18.965 36.32 -18.305 37.64 -17.625 39 C-14.88594655 40.36952673 -12.65412668 40.12621361 -9.625 40 C-8.635 39.505 -8.635 39.505 -7.625 39 C-7.625 37.68 -7.625 36.36 -7.625 35 C-8.53995239 34.72119995 -8.53995239 34.72119995 -9.47338867 34.43676758 C-12.25835589 33.57812448 -15.03519758 32.69560538 -17.8125 31.8125 C-18.77220703 31.52052734 -19.73191406 31.22855469 -20.72070312 30.92773438 C-27.30022498 28.81044879 -30.86082043 26.81720036 -34.9375 21.1875 C-36.41972614 16.47132592 -36.11017735 12.37466916 -34.5 7.8125 C-27.05990667 -3.34764 -11.8318201 -5.27635221 0 0 Z " fill="#212121" transform="translate(449.625,43)"/>
<path d="M0 0 C5.61 0 11.22 0 17 0 C17.33 2.31 17.66 4.62 18 7 C18.886875 6.21625 19.77375 5.4325 20.6875 4.625 C25.14726071 0.92947058 28.09724816 0 34 0 C34 5.94 34 11.88 34 18 C31.265625 18.42317708 28.53125 18.84635417 25.796875 19.26953125 C22.77439187 20.05892279 21.18297723 20.77196131 19 23 C17.99441382 26.78632699 17.81310928 30.49056304 17.68359375 34.39453125 C17.64169922 35.59658203 17.59980469 36.79863281 17.55664062 38.03710938 C17.51732422 39.28298828 17.47800781 40.52886719 17.4375 41.8125 C17.39431641 43.07771484 17.35113281 44.34292969 17.30664062 45.64648438 C17.20075593 48.7642004 17.09989226 51.88208622 17 55 C11.39 55 5.78 55 0 55 C0 36.85 0 18.7 0 0 Z " fill="#212121" transform="translate(283,41)"/>
<path d="M0 0 C5.61 0 11.22 0 17 0 C17 18.15 17 36.3 17 55 C11.39 55 5.78 55 0 55 C0 36.85 0 18.7 0 0 Z " fill="#212121" transform="translate(388,41)"/>
<path d="M0 0 C3.07921132 -0.25660094 5.21136993 -0.39431504 8 1 C9.71388119 6.14164357 9.22681292 11.55520012 9.25 16.9375 C9.270625 18.13052734 9.29125 19.32355469 9.3125 20.55273438 C9.31765625 21.69935547 9.3228125 22.84597656 9.328125 24.02734375 C9.34214355 25.60116821 9.34214355 25.60116821 9.35644531 27.20678711 C8.95678458 30.33864904 8.0984609 31.69273185 6 34 C3.6568787 33.74438677 1.32156597 33.40729228 -1 33 C-3.28128029 28.43743942 -2.18502621 22.07192821 -2.1875 17.0625 C-2.19974609 15.76119141 -2.21199219 14.45988281 -2.22460938 13.11914062 C-2.22654297 11.87455078 -2.22847656 10.62996094 -2.23046875 9.34765625 C-2.23457764 8.20304932 -2.23868652 7.05844238 -2.24291992 5.87915039 C-2 3 -2 3 0 0 Z " fill="#FF801B" transform="translate(70,106)"/>
<path d="M0 0 C3.07921132 -0.25660094 5.21136993 -0.39431504 8 1 C9.71388119 6.14164357 9.22681292 11.55520012 9.25 16.9375 C9.270625 18.13052734 9.29125 19.32355469 9.3125 20.55273438 C9.31765625 21.69935547 9.3228125 22.84597656 9.328125 24.02734375 C9.34214355 25.60116821 9.34214355 25.60116821 9.35644531 27.20678711 C8.95196859 30.37638862 8.23146056 31.7435604 6 34 C3.18801863 34.49209674 1.73514814 34.50980233 -0.63354492 32.8671875 C-2.62513667 30.1457843 -2.37203876 28.03144753 -2.36328125 24.6875 C-2.36263672 23.44742188 -2.36199219 22.20734375 -2.36132812 20.9296875 C-2.34521484 19.63289063 -2.32910156 18.33609375 -2.3125 17 C-2.31572266 15.70320313 -2.31894531 14.40640625 -2.32226562 13.0703125 C-2.26698067 3.400471 -2.26698067 3.400471 0 0 Z " fill="#FF8421" transform="translate(46,106)"/>
<path d="M0 0 C2.82689795 1.25639909 4.47004961 2.32551768 6.375 4.75 C7.31697802 8.14112087 6.84752199 10.60991203 6 14 C3.70219958 17.49265664 2.22903565 17.94458815 -1.875 18.9375 C-5.9698519 19.25836526 -8.57873083 18.36230491 -12 16 C-14.17222379 13.35555365 -13.99893321 11.97012982 -13.875 8.5 C-12.92565772 4.70263089 -12.02747709 3.38528498 -9 1 C-5.93570224 -0.53214888 -3.3834358 -0.22938548 0 0 Z " fill="#212121" transform="translate(400,18)"/>
<path d="M0 0 C0.33 0 0.66 0 1 0 C1.08708752 4.2498709 1.14042181 8.49951239 1.1875 12.75 C1.22520508 14.55984375 1.22520508 14.55984375 1.26367188 16.40625 C1.27817383 18.14648438 1.27817383 18.14648438 1.29296875 19.921875 C1.31653442 21.52434082 1.31653442 21.52434082 1.34057617 23.15917969 C0.95597392 26.36723115 0.26177583 27.72507627 -2 30 C-4.8180173 30.49315303 -6.30538007 30.38323858 -8.8125 29 C-10.78587049 25.67642865 -10.30312838 22.81941755 -10 19 C-9.34 18.34 -8.68 17.68 -8 17 C-8.33 16.01 -8.66 15.02 -9 14 C-8.01 14 -7.02 14 -6 14 C-5.67 13.34 -5.34 12.68 -5 12 C-3.68 12.33 -2.36 12.66 -1 13 C-0.67 8.71 -0.34 4.42 0 0 Z " fill="#FF7F1A" transform="translate(54,110)"/>
<path d="M0 0 C3.07921132 -0.25660094 5.21136993 -0.39431504 8 1 C7.67 2.32 7.34 3.64 7 5 C4.36 5.33 1.72 5.66 -1 6 C-1.33 7.32 -1.66 8.64 -2 10 C-2.25 3.375 -2.25 3.375 0 0 Z " fill="#FF902C" transform="translate(46,106)"/>
<path d="M0 0 C0.33 0 0.66 0 1 0 C1 6.27 1 12.54 1 19 C0.01 18.01 -0.98 17.02 -2 16 C-5.62535976 15.7496423 -5.62535976 15.7496423 -9 16 C-9 15.34 -9 14.68 -9 14 C-8.01 14 -7.02 14 -6 14 C-5.67 13.34 -5.34 12.68 -5 12 C-3.68 12.33 -2.36 12.66 -1 13 C-0.67 8.71 -0.34 4.42 0 0 Z " fill="#FF750E" transform="translate(54,110)"/>
</svg>
